<svg xmlns="http://www.w3.org/2000/svg" style="display:none">
	<!-- UI glyphs replacing the design's sallaicons font. 24px grid, stroke style. -->
	<symbol id="icon-cart" viewBox="0 0 24 24" fill="none" stroke="currentColor" stroke-width="1.6" stroke-linecap="round" stroke-linejoin="round">
		<circle cx="9" cy="20" r="1.4"/><circle cx="17" cy="20" r="1.4"/>
		<path d="M3 4h2l2.4 11.2a1.6 1.6 0 0 0 1.57 1.3h7.66a1.6 1.6 0 0 0 1.56-1.22L20.5 8H6"/>
	</symbol>
	<symbol id="icon-user" viewBox="0 0 24 24" fill="none" stroke="currentColor" stroke-width="1.6" stroke-linecap="round" stroke-linejoin="round">
		<circle cx="12" cy="8" r="3.6"/><path d="M5 20c1.4-3.2 4-4.8 7-4.8s5.6 1.6 7 4.8"/>
	</symbol>
	<symbol id="icon-search" viewBox="0 0 24 24" fill="none" stroke="currentColor" stroke-width="1.6" stroke-linecap="round">
		<circle cx="11" cy="11" r="6.5"/><path d="m20 20-3.8-3.8"/>
	</symbol>
	<symbol id="icon-home" viewBox="0 0 24 24" fill="none" stroke="currentColor" stroke-width="1.6" stroke-linecap="round" stroke-linejoin="round">
		<path d="M4 10.5 12 4l8 6.5V20a1 1 0 0 1-1 1h-4.5v-6h-5v6H5a1 1 0 0 1-1-1Z"/>
	</symbol>
	<symbol id="icon-categories" viewBox="0 0 24 24" fill="none" stroke="currentColor" stroke-width="1.6" stroke-linejoin="round">
		<rect x="4" y="4" width="7" height="7" rx="1.5"/><rect x="13" y="4" width="7" height="7" rx="1.5"/>
		<rect x="4" y="13" width="7" height="7" rx="1.5"/><rect x="13" y="13" width="7" height="7" rx="1.5"/>
	</symbol>
	<symbol id="icon-email" viewBox="0 0 24 24" fill="none" stroke="currentColor" stroke-width="1.6" stroke-linejoin="round">
		<rect x="3.5" y="5.5" width="17" height="13" rx="2"/><path d="m4 7 8 6 8-6"/>
	</symbol>
	<symbol id="icon-telegram" viewBox="0 0 24 24" fill="currentColor">
		<path d="M21.6 3.3 2.9 10.6c-1 .4-1 1.4 0 1.7l4.6 1.5 1.7 5.3c.3.8 1.2 1 1.8.4l2.5-2.4 4.7 3.5c.7.5 1.6.1 1.8-.7l3-15.2c.2-1-.6-1.7-1.4-1.4ZM8.6 13.4l9.4-6-7.5 7 -.3 3.1-1.6-4.1Z"/>
	</symbol>
	<symbol id="icon-instagram" viewBox="0 0 24 24" fill="none" stroke="currentColor" stroke-width="1.6" stroke-linecap="round">
		<rect x="4" y="4" width="16" height="16" rx="4.5"/><circle cx="12" cy="12" r="4"/><circle cx="17" cy="7" r="0.5" fill="currentColor"/>
	</symbol>
	<symbol id="icon-x" viewBox="0 0 24 24" fill="currentColor">
		<path d="M17.9 4h2.7l-6 6.8L21.7 20h-5.5l-4.3-5.6L7 20H4.3l6.4-7.3L3.5 4H9l3.9 5.2L17.9 4Zm-1 14.4h1.5L8.2 5.5H6.6L16.9 18.4Z"/>
	</symbol>
	<symbol id="icon-youtube" viewBox="0 0 24 24" fill="none" stroke="currentColor" stroke-width="1.6" stroke-linejoin="round">
		<rect x="3" y="6" width="18" height="12" rx="3"/><path d="M10.5 9.8v4.4l4-2.2-4-2.2Z" fill="currentColor" stroke="none"/>
	</symbol>
	<symbol id="icon-chevron" viewBox="0 0 24 24" fill="none" stroke="currentColor" stroke-width="1.8" stroke-linecap="round" stroke-linejoin="round">
		<path d="m9 6 6 6-6 6"/>
	</symbol>
	<symbol id="icon-arrow-start" viewBox="0 0 24 24" fill="none" stroke="currentColor" stroke-width="1.8" stroke-linecap="round" stroke-linejoin="round">
		<path d="m14 6-6 6 6 6"/>
	</symbol>
	<symbol id="icon-arrow-end" viewBox="0 0 24 24" fill="none" stroke="currentColor" stroke-width="1.8" stroke-linecap="round" stroke-linejoin="round">
		<path d="m10 6 6 6-6 6"/>
	</symbol>
	<symbol id="icon-plus" viewBox="0 0 24 24" fill="none" stroke="currentColor" stroke-width="1.8" stroke-linecap="round">
		<path d="M12 5v14M5 12h14"/>
	</symbol>
	<symbol id="icon-minus" viewBox="0 0 24 24" fill="none" stroke="currentColor" stroke-width="1.8" stroke-linecap="round">
		<path d="M5 12h14"/>
	</symbol>
	<symbol id="icon-star" viewBox="0 0 24 24" fill="currentColor">
		<path d="m12 2.5 2.9 6 6.6.9-4.8 4.6 1.2 6.5L12 17.4l-5.9 3.1 1.2-6.5L2.5 9.4l6.6-.9 2.9-6Z"/>
	</symbol>
	<symbol id="icon-trash" viewBox="0 0 24 24" fill="none" stroke="currentColor" stroke-width="1.6" stroke-linecap="round" stroke-linejoin="round">
		<path d="M4 7h16M9 7V5a1 1 0 0 1 1-1h4a1 1 0 0 1 1 1v2M6.5 7l1 12a1.5 1.5 0 0 0 1.5 1.4h6a1.5 1.5 0 0 0 1.5-1.4l1-12"/>
	</symbol>
	<symbol id="icon-close" viewBox="0 0 24 24" fill="none" stroke="currentColor" stroke-width="1.8" stroke-linecap="round">
		<path d="m6 6 12 12M18 6 6 18"/>
	</symbol>
</svg>
