<svg preserveAspectRatio="none" width="100%" height="100%" overflow="visible" style="display: block;" viewBox="0 0 14 14" fill="none" xmlns="http://www.w3.org/2000/svg">
<g id="Icon" clip-path="url(#clip0_0_6)">
<path id="Vector" d="M13.7813 0.210875C13.9453 0.328125 14.0236 0.515375 13.9921 0.710937L11.9923 12.7111C11.9687 12.8594 11.8751 12.9846 11.7425 13.0629C11.6721 13.1018 11.5863 13.1254 11.5001 13.1254C11.4376 13.1254 11.375 13.1097 11.3124 13.0865L7.19512 11.4069L4.86719 13.9615C4.77356 14.0709 4.64056 14.1256 4.50013 14.1256C4.43756 14.1256 4.375 14.1177 4.32031 14.0945C4.12519 14.0162 4.00006 13.8289 4.00006 13.6259V10.0949L0.312375 8.58725C0.132563 8.51681 0.0153125 8.35275 0 8.15763C-0.01575 7.96994 0.08575 7.79056 0.249813 7.6965L13.2497 0.196438C13.4138 0.0949375 13.6246 0.102813 13.7808 0.212188L13.7813 0.210875ZM11.1094 11.9219L12.8358 1.58594L1.63275 8.04694L4.25775 9.11706L11.0001 4.12475L7.26556 10.3513L11.1094 11.9219Z" fill="var(--fill-0, white)"/>
</g>
<defs>
<clipPath id="clip0_0_6">
<rect width="14" height="14" fill="white"/>
</clipPath>
</defs>
</svg>
