<svg preserveAspectRatio="none" width="100%" height="100%" overflow="visible" style="display: block;" viewBox="0 0 14 14" fill="none" xmlns="http://www.w3.org/2000/svg">
<g id="Icon" clip-path="url(#clip0_0_12)">
<path id="Vector" d="M10.0625 14H3.9375C1.76269 14 0 12.2373 0 10.0625V3.9375C0 1.76269 1.76269 0 3.9375 0H10.0625C12.2373 0 14 1.76269 14 3.9375V10.0625C14 12.2373 12.2373 14 10.0625 14ZM3.9375 0.875C2.24613 0.875 0.875 2.24613 0.875 3.9375V10.0625C0.875 11.7539 2.24613 13.125 3.9375 13.125H10.0625C11.7539 13.125 13.125 11.7539 13.125 10.0625V3.9375C13.125 2.24613 11.7539 0.875 10.0625 0.875H3.9375ZM7 10.5C5.06712 10.5 3.5 8.93288 3.5 7C3.5 5.06712 5.06712 3.5 7 3.5C8.93288 3.5 10.5 5.06712 10.5 7C10.5 8.93288 8.93288 10.5 7 10.5ZM7 4.375C5.55013 4.375 4.375 5.55013 4.375 7C4.375 8.44987 5.55013 9.625 7 9.625C8.44987 9.625 9.625 8.44987 9.625 7C9.625 5.55013 8.44987 4.375 7 4.375ZM10.9375 3.9375C10.4541 3.9375 10.0625 3.54594 10.0625 3.0625C10.0625 2.57906 10.4541 2.1875 10.9375 2.1875C11.4209 2.1875 11.8125 2.57906 11.8125 3.0625C11.8125 3.54594 11.4209 3.9375 10.9375 3.9375Z" fill="var(--fill-0, white)"/>
</g>
<defs>
<clipPath id="clip0_0_12">
<rect width="14" height="14" fill="white"/>
</clipPath>
</defs>
</svg>
