<svg preserveAspectRatio="none" width="100%" height="100%" overflow="visible" style="display: block;" viewBox="0 0 20 20" fill="none" xmlns="http://www.w3.org/2000/svg">
<g id="Icon">
<path id="Vector" d="M10 8.33333C11.8409 8.33333 13.3333 6.84095 13.3333 5C13.3333 3.15905 11.8409 1.66667 10 1.66667C8.15905 1.66667 6.66667 3.15905 6.66667 5C6.66667 6.84095 8.15905 8.33333 10 8.33333Z" stroke="var(--stroke-0, white)" stroke-width="1.25"/>
<path id="Vector_2" d="M16.6646 15C16.6667 14.8632 16.6667 14.7242 16.6667 14.5833C16.6667 12.5122 13.6819 10.8333 10 10.8333C6.3181 10.8333 3.33333 12.5122 3.33333 14.5833C3.33333 16.6544 3.33333 18.3333 10 18.3333C11.8592 18.3333 13.1998 18.2027 14.1667 17.9695" stroke="var(--stroke-0, white)" stroke-width="1.25" stroke-linecap="round"/>
</g>
</svg>
