<svg preserveAspectRatio="none" width="100%" height="100%" overflow="visible" style="display: block;" viewBox="0 0 16 16" fill="none" xmlns="http://www.w3.org/2000/svg">
<g id="Icon">
<path id="Vector" d="M15.357 5.9195C15.357 6.08 15.241 6.232 15.125 6.348L11.884 9.5085L12.652 13.973C12.661 14.0355 12.661 14.089 12.661 14.1515C12.661 14.3835 12.554 14.598 12.295 14.598C12.17 14.598 12.045 14.5535 11.938 14.491L7.929 12.384L3.92 14.491C3.804 14.5535 3.688 14.598 3.563 14.598C3.304 14.598 3.188 14.3835 3.188 14.1515C3.188 14.089 3.197 14.0355 3.206 13.973L3.974 9.5085L0.724 6.348C0.617 6.232 0.501 6.08 0.501 5.9195C0.501 5.6515 0.778 5.5445 1.001 5.509L5.483 4.857L7.492 0.7945C7.5725 0.625 7.724 0.4285 7.9295 0.4285C8.135 0.4285 8.2865 0.625 8.367 0.7945L10.376 4.857L14.858 5.509C15.0725 5.5445 15.358 5.652 15.358 5.9195H15.357Z" fill="var(--fill-0, #F6973F)"/>
</g>
</svg>
