<svg preserveAspectRatio="none" width="100%" height="100%" overflow="visible" style="display: block;" viewBox="0 0 14 14" fill="none" xmlns="http://www.w3.org/2000/svg">
<g id="Icon">
<path id="Vector" d="M12.25 1.16681H1.75C0.785313 1.16681 0 1.95213 0 2.91681V11.0836C0 12.0483 0.785313 12.8336 1.75 12.8336H12.25C13.2147 12.8336 14 12.0483 14 11.0836V2.91681C14 1.95213 13.2147 1.16681 12.25 1.16681ZM12.8332 11.0832C12.8332 11.4048 12.5711 11.6664 12.25 11.6664H1.75C1.42844 11.6664 1.16681 11.4043 1.16681 11.0832V5.5335L5.77806 7.66194C6.16656 7.84088 6.58306 7.93013 7 7.93013C7.41694 7.93013 7.83431 7.84088 8.22194 7.66106L12.8332 5.53306V11.0832ZM12.8332 4.24856L7.73325 6.60231C7.26731 6.81756 6.73225 6.81756 6.26631 6.60231L1.16681 4.24856V2.91681C1.16681 2.59525 1.42887 2.33363 1.75 2.33363H12.25C12.5716 2.33363 12.8332 2.59569 12.8332 2.91681V4.24856Z" fill="var(--fill-0, white)"/>
</g>
</svg>
