<svg preserveAspectRatio="none" width="100%" height="100%" overflow="visible" style="display: block;" viewBox="0 0 20 20" fill="none" xmlns="http://www.w3.org/2000/svg">
<g id="Icon">
<path id="Vector" d="M19.1962 7.39937C19.1962 7.6 19.0512 7.79 18.9062 7.935L14.855 11.8856L15.815 17.4662C15.8263 17.5444 15.8262 17.6112 15.8262 17.6894C15.8262 17.9794 15.6925 18.2475 15.3687 18.2475C15.2125 18.2475 15.0562 18.1919 14.9225 18.1137L9.91125 15.48L4.9 18.1137C4.755 18.1919 4.61 18.2475 4.45375 18.2475C4.13 18.2475 3.985 17.9794 3.985 17.6894C3.985 17.6112 3.99625 17.5444 4.0075 17.4662L4.9675 11.8856L0.905 7.935C0.77125 7.79 0.62625 7.6 0.62625 7.39937C0.62625 7.06437 0.9725 6.93062 1.25125 6.88625L6.85375 6.07125L9.365 0.993125C9.46563 0.78125 9.655 0.535625 9.91188 0.535625C10.1688 0.535625 10.3581 0.78125 10.4588 0.993125L12.97 6.07125L18.5725 6.88625C18.8406 6.93062 19.1975 7.065 19.1975 7.39937H19.1962Z" fill="var(--fill-0, #F6973F)"/>
</g>
</svg>
