<svg preserveAspectRatio="none" width="100%" height="100%" overflow="visible" style="display: block;" viewBox="0 0 14 14" fill="none" xmlns="http://www.w3.org/2000/svg">
<g id="Icon">
<path id="Vector" d="M7 12.25C5.39613 12.25 3.3355 12.2255 2.49813 12.1791C2.44869 12.1835 2.39138 12.1861 2.33363 12.1861C1.60038 12.1861 0.960312 11.788 0.61775 11.1956L0.6125 11.186C0.188125 10.486 0 9.3275 0 7.44188C0 5.55625 0.19075 4.396 0.61775 3.67937C0.959875 3.08437 1.59206 2.68975 2.31656 2.68975C2.38131 2.68975 2.44475 2.69281 2.50775 2.69894L2.49988 2.6985C3.31888 2.64425 5.36287 2.625 7 2.625C8.63713 2.625 10.675 2.64425 11.5027 2.6985C11.557 2.69325 11.6196 2.69019 11.683 2.69019C12.4075 2.69019 13.0397 3.08612 13.3744 3.67325L13.3796 3.68288C13.8093 4.39338 14 5.551 14 7.4375C14 9.33537 13.8084 10.4921 13.3779 11.2C13.0327 11.7968 12.3974 12.1923 11.6699 12.1923C11.6117 12.1923 11.5539 12.1896 11.4971 12.1848L11.5045 12.1852C10.6619 12.2255 8.603 12.25 7 12.25ZM7 3.5C5.376 3.5 3.35387 3.51837 2.5515 3.57175C1.813 3.61287 1.61525 3.70563 1.36938 4.1265C1.03863 4.91838 0.846562 5.83844 0.846562 6.80356C0.846562 7.02669 0.857062 7.24762 0.87675 7.4655L0.874562 7.4375C0.856187 7.62781 0.846125 7.84919 0.846125 8.07319C0.846125 9.03481 1.03775 9.95181 1.38469 10.7879L1.36762 10.7411C1.61525 11.1646 1.81475 11.2591 2.55238 11.3081C3.99175 11.3886 9.9995 11.3886 11.4511 11.3081C12.1852 11.2599 12.3839 11.1654 12.6254 10.7481C12.9596 9.95925 13.1539 9.04225 13.1539 8.07931C13.1539 7.85487 13.1434 7.63306 13.1228 7.41431L13.125 7.44231C13.1434 7.25156 13.1534 7.02975 13.1534 6.80575C13.1534 5.84194 12.9614 4.92319 12.6131 4.08538L12.6306 4.13219V4.12519C12.3883 3.70606 12.1931 3.61331 11.4564 3.57219C10.6418 3.51881 8.54963 3.50044 7 3.50044V3.5ZM5.6875 10.0625C5.446 10.0625 5.25 9.8665 5.25 9.625V5.25C5.25 5.0085 5.446 4.8125 5.6875 4.8125C5.77325 4.8125 5.85375 4.83744 5.92113 4.87988L5.91937 4.879L9.41938 7.0665C9.54363 7.14525 9.625 7.28175 9.625 7.4375C9.625 7.59325 9.54363 7.72975 9.42113 7.80763L9.41938 7.8085L5.91937 9.996C5.85375 10.0376 5.77325 10.0625 5.6875 10.0625ZM6.125 6.0375V8.8375L8.36238 7.4375L6.125 6.0375Z" fill="var(--fill-0, white)"/>
</g>
</svg>
